<svg xmlns="http://www.w3.org/2000/svg" viewBox="0 0 400 800" width="100%" height="100%">
  <defs>
    <filter id="drop-shadow" x="-10%" y="-10%" width="130%" height="130%">
      <feDropShadow dx="4" dy="6" stdDeviation="5" flood-color="#000000" flood-opacity="0.3"/>
    </filter>
  </defs>

  <rect width="400" height="800" fill="#f4f4f9" />

  <g filter="url(#drop-shadow)">
    <path d="M 220 350 
             C 250 350, 260 360, 260 380 
             C 260 400, 240 410, 230 430 
             C 320 450, 330 550, 310 650 
             C 280 750, 120 750, 90 650 
             C 70 550, 80 450, 130 400 
             C 150 370, 170 350, 180 350 Z" 
          fill="#F0C05A" stroke="#C7922D" stroke-width="4"/>

    <rect x="180" y="100" width="40" height="250" fill="#E8C58C" stroke="#B8945C" stroke-width="2"/>

    <path d="M 180 100 
             L 180 40 
             C 180 20, 200 20, 220 30 
             C 240 40, 230 60, 210 70 
             C 200 75, 200 85, 220 100 Z" 
          fill="#E8C58C" stroke="#B8945C" stroke-width="2"/>

    <path d="M 180 350 
             C 140 370, 110 420, 120 500 
             C 130 550, 170 580, 200 560 
             C 210 550, 210 530, 210 510 
             L 240 510 
             C 245 480, 245 450, 220 440 
             C 200 430, 200 380, 220 350 Z" 
          fill="#1A1A1A" stroke="#000" stroke-width="1"/>

    <g transform="rotate(-15 240 560)">
      <rect x="240" y="540" width="22" height="100" rx="11" fill="#E0E0E0" stroke="#999" stroke-width="2"/>
      <line x1="251" y1="552" x2="251" y2="572" stroke="#111" stroke-width="3" stroke-linecap="round"/>
      <circle cx="251" cy="552" r="3.5" fill="#111"/>
      <circle cx="251" cy="595" r="7" fill="#E0E0E0" stroke="#666" stroke-width="1.5"/>
      <circle cx="251" cy="595" r="5" fill="#333"/>
      <circle cx="251" cy="620" r="7" fill="#E0E0E0" stroke="#666" stroke-width="1.5"/>
      <circle cx="251" cy="620" r="5" fill="#333"/>
    </g>

    <rect x="168" y="550" width="64" height="75" rx="4" fill="#E0E0E0" stroke="#999" stroke-width="2"/>
    
    <g transform="translate(200, 580) rotate(-12)">
      <rect x="-22" y="-8" width="44" height="16" rx="2" fill="#222"/>
      <circle cx="-15" cy="0" r="2" fill="#E0E0E0"/>
      <circle cx="-9" cy="0" r="2" fill="#E0E0E0"/>
      <circle cx="-3" cy="0" r="2" fill="#E0E0E0"/>
      <circle cx="3" cy="0" r="2" fill="#E0E0E0"/>
      <circle cx="9" cy="0" r="2" fill="#E0E0E0"/>
      <circle cx="15" cy="0" r="2" fill="#E0E0E0"/>
    </g>

    <rect x="176" y="605" width="13" height="8" rx="2" fill="#C5832E" stroke="#8A5A1F"/>
    <rect x="193" y="605" width="13" height="8" rx="2" fill="#C5832E" stroke="#8A5A1F"/>
    <rect x="210" y="605" width="13" height="8" rx="2" fill="#C5832E" stroke="#8A5A1F"/>

    <rect x="183" y="460" width="34" height="14" rx="4" fill="#E0E0E0" stroke="#999" stroke-width="1.5"/>

    <path d="M180 120 L220 120 M180 140 L220 140 M180 160 L220 160 M180 178 L220 178 
             M180 195 L220 195 M180 211 L220 211 M180 226 L220 226 M180 240 L220 240 
             M180 253 L220 253 M180 265 L220 265 M180 276 L220 276 M180 286 L220 286 
             M180 295 L220 295 M180 304 L220 304 M180 312 L220 312 M180 320 L220 320 
             M180 327 L220 327 M180 334 L220 334 M180 340 L220 340 M180 346 L220 346" 
          stroke="#888" stroke-width="1"/>

    <circle cx="200" cy="150" r="2.5" fill="#111"/> <circle cx="200" cy="186.5" r="2.5" fill="#111"/> <circle cx="200" cy="218.5" r="2.5" fill="#111"/> <circle cx="200" cy="246.5" r="2.5" fill="#111"/> <circle cx="193" cy="281" r="2" fill="#111"/> <circle cx="207" cy="281" r="2" fill="#111"/> 
    <circle cx="200" cy="308" r="2.5" fill="#111"/> <circle cx="200" cy="323.5" r="2.5" fill="#111"/> <circle cx="200" cy="337" r="2.5" fill="#111"/> <circle cx="200" cy="348" r="2.5" fill="#111"/> <rect x="180" y="96" width="40" height="4" fill="#FAFAFA" stroke="#CCC" stroke-width="1"/>

    <g fill="#E0E0E0" stroke="#999" stroke-width="1">
      <rect x="168" y="43" width="12" height="4" rx="1"/>
      <rect x="168" y="53" width="12" height="4" rx="1"/>
      <rect x="168" y="63" width="12" height="4" rx="1"/>
      <rect x="168" y="73" width="12" height="4" rx="1"/>
      <rect x="168" y="83" width="12" height="4" rx="1"/>
      <rect x="168" y="93" width="12" height="4" rx="1"/>
      <circle cx="188" cy="45" r="2"/>
      <circle cx="188" cy="55" r="2"/>
      <circle cx="188" cy="65" r="2"/>
      <circle cx="188" cy="75" r="2"/>
      <circle cx="188" cy="85" r="2"/>
      <circle cx="188" cy="95" r="2"/>
    </g>

    <path d="M 179 610 L 179 96 L 188 95
             M 183.4 610 L 183.4 96 L 188 85
             M 187.8 610 L 187.8 96 L 188 75
             M 192.2 610 L 192.2 96 L 188 65
             M 196.6 610 L 196.6 96 L 188 55
             M 201 610 L 201 96 L 188 45" 
          stroke="#CCC" stroke-width="0.8" fill="none" opacity="0.8"/>
  </g>
</svg>
